<svg width="1280" height="360" viewBox="0 0 1280 360" fill="none" xmlns="http://www.w3.org/2000/svg">
<path d="M571.545 124.705V66.5227H585V70.9773H576.636V120.25H585V124.705H571.545Z" fill="#32C572"/>
<path d="M643.52 110.25V107.018L647.84 105.258V86.666C647.84 82.602 645.728 81.194 642.912 81.194C640.704 81.194 637.696 81.898 634.272 83.786V105.322L638.496 107.018V110.25H624V107.018L628.32 105.258V83.338L622.72 82.474V78.922L633.088 76.522L633.92 76.874V80.554C638.112 77.898 641.952 76.362 645.696 76.362C651.168 76.362 653.792 79.466 653.792 85.418V105.322L658.016 107.018V110.25H643.52Z" fill="#E6EBF9"/>
<path d="M707.636 66.5227V124.705H694.182V120.25H702.545V70.9773H694.182V66.5227H707.636Z" fill="#32C572"/>
<path d="M535.92 239V237.6L537.8 237.32C538.227 237.24 538.507 237.08 538.64 236.84C538.773 236.573 538.84 236.093 538.84 235.4V222.84C538.84 221.907 538.76 221.28 538.6 220.96C538.44 220.64 538.067 220.453 537.48 220.4L535.56 220.16L535.76 218.76L542.12 218.32L542.48 218.6L542.64 222.32H542.72C543.387 220.96 544.347 219.907 545.6 219.16C546.853 218.413 548.2 218.04 549.64 218.04C551.053 218.04 552.24 218.307 553.2 218.84C554.16 219.347 554.88 220.12 555.36 221.16C555.84 222.173 556.08 223.427 556.08 224.92V235.68C556.08 236.293 556.16 236.707 556.32 236.92C556.48 237.133 556.813 237.28 557.32 237.36L559.12 237.6V239H549.08V237.64L550.76 237.4C551.267 237.293 551.587 237.133 551.72 236.92C551.88 236.707 551.96 236.307 551.96 235.72V225.56C551.96 224.307 551.84 223.32 551.6 222.6C551.36 221.853 550.96 221.32 550.4 221C549.867 220.68 549.12 220.52 548.16 220.52C547.147 220.52 546.24 220.747 545.44 221.2C544.667 221.627 544.053 222.253 543.6 223.08C543.173 223.88 542.96 224.84 542.96 225.96V235.56C542.96 236.147 543.027 236.56 543.16 236.8C543.293 237.04 543.56 237.2 543.96 237.28L545.96 237.64V239H535.92ZM581.656 239.56C579.656 239.56 577.909 239.147 576.416 238.32C574.949 237.467 573.816 236.28 573.016 234.76C572.216 233.213 571.816 231.373 571.816 229.24C571.816 226.893 572.242 224.893 573.096 223.24C573.949 221.56 575.149 220.28 576.696 219.4C578.269 218.493 580.109 218.04 582.216 218.04C584.162 218.04 585.856 218.453 587.296 219.28C588.736 220.08 589.842 221.253 590.616 222.8C591.416 224.32 591.816 226.147 591.816 228.28C591.816 230.573 591.389 232.573 590.536 234.28C589.709 235.96 588.536 237.267 587.016 238.2C585.496 239.107 583.709 239.56 581.656 239.56ZM582.256 237.72C583.349 237.72 584.269 237.413 585.016 236.8C585.789 236.187 586.362 235.253 586.736 234C587.109 232.747 587.296 231.147 587.296 229.2C587.296 227.653 587.162 226.293 586.896 225.12C586.656 223.92 586.282 222.933 585.776 222.16C585.269 221.387 584.656 220.813 583.936 220.44C583.242 220.04 582.442 219.84 581.536 219.84C580.416 219.84 579.469 220.133 578.696 220.72C577.922 221.28 577.322 222.173 576.896 223.4C576.496 224.6 576.296 226.147 576.296 228.04C576.296 230.2 576.536 232 577.016 233.44C577.522 234.853 578.216 235.92 579.096 236.64C579.976 237.36 581.029 237.72 582.256 237.72ZM605.139 239V237.6L607.019 237.28C607.445 237.2 607.725 237.04 607.859 236.8C607.992 236.533 608.059 236.053 608.059 235.36V222.88C608.059 221.947 607.979 221.32 607.819 221C607.659 220.653 607.285 220.453 606.699 220.4L604.779 220.2L604.979 218.76L611.259 218.32L611.619 218.6L611.899 222.36H611.979C612.645 220.973 613.499 219.907 614.539 219.16C615.579 218.413 616.699 218.04 617.899 218.04C619.179 218.04 620.192 218.387 620.939 219.08C621.685 219.747 622.059 220.64 622.059 221.76C622.059 222.427 621.952 223 621.739 223.48C621.552 223.933 621.245 224.293 620.819 224.56C620.419 224.8 619.912 224.92 619.299 224.92C618.499 224.92 617.885 224.747 617.459 224.4C617.059 224.053 616.859 223.613 616.859 223.08C616.859 222.84 616.899 222.6 616.979 222.36C617.059 222.12 617.179 221.84 617.339 221.52C617.499 221.2 617.699 220.84 617.939 220.44C617.325 220.2 616.672 220.173 615.979 220.36C615.312 220.547 614.685 220.92 614.099 221.48C613.539 222.013 613.072 222.693 612.699 223.52C612.352 224.32 612.179 225.187 612.179 226.12V235.44C612.179 236.08 612.245 236.52 612.379 236.76C612.512 236.973 612.792 237.107 613.219 237.16L616.539 237.6V239H605.139ZM634.076 239V237.56L636.236 237.24C636.716 237.187 637.022 237.027 637.156 236.76C637.289 236.493 637.356 236 637.356 235.28V222.96C637.356 222 637.276 221.36 637.116 221.04C636.956 220.72 636.569 220.52 635.956 220.44L634.076 220.24L634.236 218.76L641.116 218.44L641.516 218.64V235.44C641.516 236 641.582 236.427 641.716 236.72C641.849 236.987 642.169 237.16 642.676 237.24L644.836 237.6V239H634.076ZM638.876 214.28C638.049 214.28 637.369 214.027 636.836 213.52C636.302 213.013 636.036 212.347 636.036 211.52C636.036 210.72 636.302 210.067 636.836 209.56C637.369 209.027 638.049 208.76 638.876 208.76C639.756 208.76 640.449 209.013 640.956 209.52C641.489 210.027 641.756 210.693 641.756 211.52C641.756 212.32 641.489 212.987 640.956 213.52C640.422 214.027 639.729 214.28 638.876 214.28ZM660.251 239.52L659.251 239.28V212.68C659.251 211.8 659.171 211.2 659.011 210.88C658.851 210.533 658.398 210.32 657.651 210.24L655.891 210.04L656.051 208.56L663.011 208.36L663.411 208.68V221.56L663.451 221.72C663.984 220.84 664.571 220.133 665.211 219.6C665.878 219.04 666.611 218.64 667.411 218.4C668.238 218.16 669.118 218.04 670.051 218.04C671.704 218.04 673.118 218.427 674.291 219.2C675.491 219.973 676.411 221.093 677.051 222.56C677.691 224.027 678.011 225.853 678.011 228.04C678.011 230.44 677.638 232.507 676.891 234.24C676.144 235.947 675.051 237.267 673.611 238.2C672.198 239.107 670.478 239.56 668.451 239.56C667.331 239.56 666.264 239.4 665.251 239.08C664.238 238.787 663.331 238.36 662.531 237.8L660.251 239.52ZM668.131 237.68C669.278 237.68 670.251 237.373 671.051 236.76C671.878 236.12 672.504 235.147 672.931 233.84C673.358 232.507 673.571 230.8 673.571 228.72C673.571 226.8 673.384 225.24 673.011 224.04C672.638 222.813 672.078 221.907 671.331 221.32C670.611 220.733 669.691 220.44 668.571 220.44C667.531 220.44 666.611 220.667 665.811 221.12C665.038 221.547 664.438 222.173 664.011 223C663.611 223.827 663.411 224.84 663.411 226.04V235.84C663.998 236.373 664.691 236.813 665.491 237.16C666.318 237.507 667.198 237.68 668.131 237.68ZM701.538 239.56C699.538 239.56 697.792 239.147 696.298 238.32C694.832 237.467 693.698 236.28 692.898 234.76C692.098 233.213 691.698 231.373 691.698 229.24C691.698 226.893 692.125 224.893 692.978 223.24C693.832 221.56 695.032 220.28 696.578 219.4C698.152 218.493 699.992 218.04 702.098 218.04C704.045 218.04 705.738 218.453 707.178 219.28C708.618 220.08 709.725 221.253 710.498 222.8C711.298 224.32 711.698 226.147 711.698 228.28C711.698 230.573 711.272 232.573 710.418 234.28C709.592 235.96 708.418 237.267 706.898 238.2C705.378 239.107 703.592 239.56 701.538 239.56ZM702.138 237.72C703.232 237.72 704.152 237.413 704.898 236.8C705.672 236.187 706.245 235.253 706.618 234C706.992 232.747 707.178 231.147 707.178 229.2C707.178 227.653 707.045 226.293 706.778 225.12C706.538 223.92 706.165 222.933 705.658 222.16C705.152 221.387 704.538 220.813 703.818 220.44C703.125 220.04 702.325 219.84 701.418 219.84C700.298 219.84 699.352 220.133 698.578 220.72C697.805 221.28 697.205 222.173 696.778 223.4C696.378 224.6 696.178 226.147 696.178 228.04C696.178 230.2 696.418 232 696.898 233.44C697.405 234.853 698.098 235.92 698.978 236.64C699.858 237.36 700.912 237.72 702.138 237.72ZM723.065 239V237.6L724.745 237.32C725.012 237.24 725.265 237.147 725.505 237.04C725.745 236.933 725.999 236.773 726.265 236.56C726.559 236.32 726.879 236 727.225 235.6L732.185 229.32L726.865 222.28C726.385 221.64 725.972 221.173 725.625 220.88C725.305 220.587 724.865 220.387 724.305 220.28L722.905 220L723.185 218.6H733.425V219.96L731.705 220.2C731.279 220.28 731.012 220.44 730.905 220.68C730.825 220.92 731.012 221.333 731.465 221.92L734.985 226.64L738.425 222.04C738.799 221.533 738.945 221.133 738.865 220.84C738.812 220.547 738.479 220.347 737.865 220.24L736.225 219.96L736.505 218.6H744.665V219.96L743.025 220.24C742.705 220.32 742.412 220.427 742.145 220.56C741.905 220.667 741.652 220.84 741.385 221.08C741.145 221.32 740.852 221.667 740.505 222.12L736.025 227.96L741.585 235.36C741.932 235.787 742.252 236.133 742.545 236.4C742.839 236.667 743.132 236.88 743.425 237.04C743.745 237.173 744.065 237.28 744.385 237.36L745.705 237.56V239H734.945V237.6L736.545 237.44C737.105 237.387 737.425 237.213 737.505 236.92C737.585 236.6 737.412 236.173 736.985 235.64L733.265 230.68L729.425 235.68C729.212 236 729.065 236.267 728.985 236.48C728.905 236.693 728.919 236.867 729.025 237C729.159 237.133 729.412 237.24 729.785 237.32L731.745 237.64V239H723.065Z" fill="#5C5F77"/>
<path d="M535.92 239V237.6L537.8 237.32C538.227 237.24 538.507 237.08 538.64 236.84C538.773 236.573 538.84 236.093 538.84 235.4V222.84C538.84 221.907 538.76 221.28 538.6 220.96C538.44 220.64 538.067 220.453 537.48 220.4L535.56 220.16L535.76 218.76L542.12 218.32L542.48 218.6L542.64 222.32H542.72C543.387 220.96 544.347 219.907 545.6 219.16C546.853 218.413 548.2 218.04 549.64 218.04C551.053 218.04 552.24 218.307 553.2 218.84C554.16 219.347 554.88 220.12 555.36 221.16C555.84 222.173 556.08 223.427 556.08 224.92V235.68C556.08 236.293 556.16 236.707 556.32 236.92C556.48 237.133 556.813 237.28 557.32 237.36L559.12 237.6V239H549.08V237.64L550.76 237.4C551.267 237.293 551.587 237.133 551.72 236.92C551.88 236.707 551.96 236.307 551.96 235.72V225.56C551.96 224.307 551.84 223.32 551.6 222.6C551.36 221.853 550.96 221.32 550.4 221C549.867 220.68 549.12 220.52 548.16 220.52C547.147 220.52 546.24 220.747 545.44 221.2C544.667 221.627 544.053 222.253 543.6 223.08C543.173 223.88 542.96 224.84 542.96 225.96V235.56C542.96 236.147 543.027 236.56 543.16 236.8C543.293 237.04 543.56 237.2 543.96 237.28L545.96 237.64V239H535.92ZM581.656 239.56C579.656 239.56 577.909 239.147 576.416 238.32C574.949 237.467 573.816 236.28 573.016 234.76C572.216 233.213 571.816 231.373 571.816 229.24C571.816 226.893 572.242 224.893 573.096 223.24C573.949 221.56 575.149 220.28 576.696 219.4C578.269 218.493 580.109 218.04 582.216 218.04C584.162 218.04 585.856 218.453 587.296 219.28C588.736 220.08 589.842 221.253 590.616 222.8C591.416 224.32 591.816 226.147 591.816 228.28C591.816 230.573 591.389 232.573 590.536 234.28C589.709 235.96 588.536 237.267 587.016 238.2C585.496 239.107 583.709 239.56 581.656 239.56ZM582.256 237.72C583.349 237.72 584.269 237.413 585.016 236.8C585.789 236.187 586.362 235.253 586.736 234C587.109 232.747 587.296 231.147 587.296 229.2C587.296 227.653 587.162 226.293 586.896 225.12C586.656 223.92 586.282 222.933 585.776 222.16C585.269 221.387 584.656 220.813 583.936 220.44C583.242 220.04 582.442 219.84 581.536 219.84C580.416 219.84 579.469 220.133 578.696 220.72C577.922 221.28 577.322 222.173 576.896 223.4C576.496 224.6 576.296 226.147 576.296 228.04C576.296 230.2 576.536 232 577.016 233.44C577.522 234.853 578.216 235.92 579.096 236.64C579.976 237.36 581.029 237.72 582.256 237.72ZM605.139 239V237.6L607.019 237.28C607.445 237.2 607.725 237.04 607.859 236.8C607.992 236.533 608.059 236.053 608.059 235.36V222.88C608.059 221.947 607.979 221.32 607.819 221C607.659 220.653 607.285 220.453 606.699 220.4L604.779 220.2L604.979 218.76L611.259 218.32L611.619 218.6L611.899 222.36H611.979C612.645 220.973 613.499 219.907 614.539 219.16C615.579 218.413 616.699 218.04 617.899 218.04C619.179 218.04 620.192 218.387 620.939 219.08C621.685 219.747 622.059 220.64 622.059 221.76C622.059 222.427 621.952 223 621.739 223.48C621.552 223.933 621.245 224.293 620.819 224.56C620.419 224.8 619.912 224.92 619.299 224.92C618.499 224.92 617.885 224.747 617.459 224.4C617.059 224.053 616.859 223.613 616.859 223.08C616.859 222.84 616.899 222.6 616.979 222.36C617.059 222.12 617.179 221.84 617.339 221.52C617.499 221.2 617.699 220.84 617.939 220.44C617.325 220.2 616.672 220.173 615.979 220.36C615.312 220.547 614.685 220.92 614.099 221.48C613.539 222.013 613.072 222.693 612.699 223.52C612.352 224.32 612.179 225.187 612.179 226.12V235.44C612.179 236.08 612.245 236.52 612.379 236.76C612.512 236.973 612.792 237.107 613.219 237.16L616.539 237.6V239H605.139ZM634.076 239V237.56L636.236 237.24C636.716 237.187 637.022 237.027 637.156 236.76C637.289 236.493 637.356 236 637.356 235.28V222.96C637.356 222 637.276 221.36 637.116 221.04C636.956 220.72 636.569 220.52 635.956 220.44L634.076 220.24L634.236 218.76L641.116 218.44L641.516 218.64V235.44C641.516 236 641.582 236.427 641.716 236.72C641.849 236.987 642.169 237.16 642.676 237.24L644.836 237.6V239H634.076ZM638.876 214.28C638.049 214.28 637.369 214.027 636.836 213.52C636.302 213.013 636.036 212.347 636.036 211.52C636.036 210.72 636.302 210.067 636.836 209.56C637.369 209.027 638.049 208.76 638.876 208.76C639.756 208.76 640.449 209.013 640.956 209.52C641.489 210.027 641.756 210.693 641.756 211.52C641.756 212.32 641.489 212.987 640.956 213.52C640.422 214.027 639.729 214.28 638.876 214.28ZM660.251 239.52L659.251 239.28V212.68C659.251 211.8 659.171 211.2 659.011 210.88C658.851 210.533 658.398 210.32 657.651 210.24L655.891 210.04L656.051 208.56L663.011 208.36L663.411 208.68V221.56L663.451 221.72C663.984 220.84 664.571 220.133 665.211 219.6C665.878 219.04 666.611 218.64 667.411 218.4C668.238 218.16 669.118 218.04 670.051 218.04C671.704 218.04 673.118 218.427 674.291 219.2C675.491 219.973 676.411 221.093 677.051 222.56C677.691 224.027 678.011 225.853 678.011 228.04C678.011 230.44 677.638 232.507 676.891 234.24C676.144 235.947 675.051 237.267 673.611 238.2C672.198 239.107 670.478 239.56 668.451 239.56C667.331 239.56 666.264 239.4 665.251 239.08C664.238 238.787 663.331 238.36 662.531 237.8L660.251 239.52ZM668.131 237.68C669.278 237.68 670.251 237.373 671.051 236.76C671.878 236.12 672.504 235.147 672.931 233.84C673.358 232.507 673.571 230.8 673.571 228.72C673.571 226.8 673.384 225.24 673.011 224.04C672.638 222.813 672.078 221.907 671.331 221.32C670.611 220.733 669.691 220.44 668.571 220.44C667.531 220.44 666.611 220.667 665.811 221.12C665.038 221.547 664.438 222.173 664.011 223C663.611 223.827 663.411 224.84 663.411 226.04V235.84C663.998 236.373 664.691 236.813 665.491 237.16C666.318 237.507 667.198 237.68 668.131 237.68ZM701.538 239.56C699.538 239.56 697.792 239.147 696.298 238.32C694.832 237.467 693.698 236.28 692.898 234.76C692.098 233.213 691.698 231.373 691.698 229.24C691.698 226.893 692.125 224.893 692.978 223.24C693.832 221.56 695.032 220.28 696.578 219.4C698.152 218.493 699.992 218.04 702.098 218.04C704.045 218.04 705.738 218.453 707.178 219.28C708.618 220.08 709.725 221.253 710.498 222.8C711.298 224.32 711.698 226.147 711.698 228.28C711.698 230.573 711.272 232.573 710.418 234.28C709.592 235.96 708.418 237.267 706.898 238.2C705.378 239.107 703.592 239.56 701.538 239.56ZM702.138 237.72C703.232 237.72 704.152 237.413 704.898 236.8C705.672 236.187 706.245 235.253 706.618 234C706.992 232.747 707.178 231.147 707.178 229.2C707.178 227.653 707.045 226.293 706.778 225.12C706.538 223.92 706.165 222.933 705.658 222.16C705.152 221.387 704.538 220.813 703.818 220.44C703.125 220.04 702.325 219.84 701.418 219.84C700.298 219.84 699.352 220.133 698.578 220.72C697.805 221.28 697.205 222.173 696.778 223.4C696.378 224.6 696.178 226.147 696.178 228.04C696.178 230.2 696.418 232 696.898 233.44C697.405 234.853 698.098 235.92 698.978 236.64C699.858 237.36 700.912 237.72 702.138 237.72ZM723.065 239V237.6L724.745 237.32C725.012 237.24 725.265 237.147 725.505 237.04C725.745 236.933 725.999 236.773 726.265 236.56C726.559 236.32 726.879 236 727.225 235.6L732.185 229.32L726.865 222.28C726.385 221.64 725.972 221.173 725.625 220.88C725.305 220.587 724.865 220.387 724.305 220.28L722.905 220L723.185 218.6H733.425V219.96L731.705 220.2C731.279 220.28 731.012 220.44 730.905 220.68C730.825 220.92 731.012 221.333 731.465 221.92L734.985 226.64L738.425 222.04C738.799 221.533 738.945 221.133 738.865 220.84C738.812 220.547 738.479 220.347 737.865 220.24L736.225 219.96L736.505 218.6H744.665V219.96L743.025 220.24C742.705 220.32 742.412 220.427 742.145 220.56C741.905 220.667 741.652 220.84 741.385 221.08C741.145 221.32 740.852 221.667 740.505 222.12L736.025 227.96L741.585 235.36C741.932 235.787 742.252 236.133 742.545 236.4C742.839 236.667 743.132 236.88 743.425 237.04C743.745 237.173 744.065 237.28 744.385 237.36L745.705 237.56V239H734.945V237.6L736.545 237.44C737.105 237.387 737.425 237.213 737.505 236.92C737.585 236.6 737.412 236.173 736.985 235.64L733.265 230.68L729.425 235.68C729.212 236 729.065 236.267 728.985 236.48C728.905 236.693 728.919 236.867 729.025 237C729.159 237.133 729.412 237.24 729.785 237.32L731.745 237.64V239H723.065Z" fill="black" fill-opacity="0.25"/>
<g opacity="0.8">
<path d="M337.524 287.344C336.588 287.128 335.748 286.996 334.776 286.996C332.712 286.996 331.692 287.596 331.692 290.272V291.508H337.104V293.668H331.692V301.84H335.856V304H325.896V301.84H329.028V293.668H325.176V291.508H329.028V290.692C329.028 286.276 331.032 284.668 334.68 284.668C335.7 284.668 336.636 284.8 337.524 285.052V287.344ZM348.375 291.22C351.483 291.22 353.355 292.24 353.355 295.156V301.132C353.355 301.984 353.655 302.2 354.735 302.068V304C354.123 304.168 353.559 304.252 353.043 304.252C351.459 304.252 350.955 303.472 350.859 302.464H350.595C349.647 303.412 348.363 304.288 346.467 304.288C344.223 304.288 342.771 303.028 342.771 300.928C342.771 297.424 346.779 296.956 350.691 297.004V295.3C350.691 293.512 349.659 293.068 348.171 293.08C346.707 293.08 345.639 293.548 345.627 295L345.615 295.504H343.191V294.868C343.191 292.732 344.643 291.22 348.375 291.22ZM345.543 300.58C345.543 301.696 346.371 302.32 347.739 302.32C348.867 302.32 349.815 301.888 350.691 301.252V298.492C350.355 298.456 350.019 298.432 349.683 298.432C347.079 298.432 345.543 299.056 345.543 300.58ZM366.078 291.22C369.426 291.22 371.322 292.444 371.346 294.952L368.934 295.132C368.79 293.812 367.83 293.152 365.898 293.152C364.158 293.152 363.102 293.668 363.102 294.712C363.102 295.72 364.122 296.092 366.762 296.668C369.834 297.328 371.55 298.048 371.55 300.328C371.55 302.728 369.618 304.276 365.874 304.276C362.418 304.276 360.522 303.256 359.994 300.4L362.442 300.1C362.946 302.02 364.278 302.296 366.006 302.296C368.07 302.296 368.874 301.516 368.874 300.628C368.874 299.608 367.818 299.26 365.034 298.66C362.202 298.06 360.558 297.136 360.558 294.928C360.558 292.648 362.31 291.22 366.078 291.22ZM380.456 299.92V293.668H377.024V291.508H380.456V287.764H383.12V291.508H388.544V293.668H383.12V300.028C383.12 301.564 383.84 302.2 384.92 302.2C386.036 302.2 386.732 301.516 386.732 300.04V299.368H388.676V299.908C388.676 302.812 387.392 304.276 384.548 304.276C381.824 304.276 380.456 302.968 380.456 299.92Z" fill="#40A02B"/>
<path d="M406.452 298.396C405.132 298.396 404.064 297.52 404.064 296.08C404.064 294.628 405.132 293.776 406.452 293.776C407.76 293.776 408.816 294.628 408.816 296.08C408.816 297.52 407.76 298.396 406.452 298.396Z" fill="#BAC2DE"/>
<path d="M423.836 304V301.84H428.108L428.12 287.776H423.848V285.64L430.448 285.352L430.784 285.676L430.772 301.84H435.044V304H423.836ZM440.591 297.736C440.591 293.452 443.159 291.22 446.987 291.22C450.539 291.22 452.615 293.08 452.615 296.824V297.964H443.303C443.375 300.736 444.659 302.152 446.891 302.152C448.319 302.152 449.423 301.576 449.987 300.28L452.567 300.676C451.703 303.148 449.519 304.288 446.879 304.288C443.159 304.288 440.591 302.044 440.591 297.736ZM443.435 296.284H450.011C450.011 294.256 448.715 293.344 446.903 293.344C445.079 293.344 443.819 294.292 443.435 296.284ZM463.658 291.22C466.766 291.22 468.638 292.24 468.638 295.156V301.132C468.638 301.984 468.938 302.2 470.018 302.068V304C469.406 304.168 468.842 304.252 468.326 304.252C466.742 304.252 466.238 303.472 466.142 302.464H465.878C464.93 303.412 463.646 304.288 461.75 304.288C459.506 304.288 458.054 303.028 458.054 300.928C458.054 297.424 462.062 296.956 465.974 297.004V295.3C465.974 293.512 464.942 293.068 463.454 293.08C461.99 293.08 460.922 293.548 460.91 295L460.898 295.504H458.474V294.868C458.474 292.732 459.926 291.22 463.658 291.22ZM460.826 300.58C460.826 301.696 461.654 302.32 463.022 302.32C464.15 302.32 465.098 301.888 465.974 301.252V298.492C465.638 298.456 465.302 298.432 464.966 298.432C462.362 298.432 460.826 299.056 460.826 300.58ZM486.652 304H483.988V295.672C483.988 293.86 483.064 293.38 481.912 293.38C480.592 293.38 479.5 294.028 478.588 295V304H475.924V291.508H478.216L478.408 293.32H478.756C479.824 292.18 481.108 291.22 483.148 291.22C485.344 291.22 486.652 292.324 486.652 294.976V304Z" fill="#179299"/>
<path d="M504.452 298.396C503.132 298.396 502.064 297.52 502.064 296.08C502.064 294.628 503.132 293.776 504.452 293.776C505.76 293.776 506.816 294.628 506.816 296.08C506.816 297.52 505.76 298.396 504.452 298.396Z" fill="#BAC2DE"/>
<path d="M533.572 297.724C533.572 301.684 531.868 304.288 528.676 304.288C526.864 304.288 525.64 303.448 524.908 302.392H524.74V308.56H522.076V291.508H524.368L524.536 293.116H524.896C525.736 292.06 526.972 291.22 528.772 291.22C531.952 291.22 533.572 293.836 533.572 297.724ZM524.74 300.94C525.664 301.744 526.612 302.056 527.584 302.056C529.696 302.056 530.86 300.664 530.86 297.724C530.86 294.844 529.756 293.452 527.608 293.452C526.624 293.452 525.664 293.764 524.74 294.58V300.94ZM550.855 297.784C550.855 302.224 548.095 304.288 544.723 304.288C541.363 304.288 538.591 302.224 538.591 297.784C538.591 293.344 541.363 291.22 544.723 291.22C548.095 291.22 550.855 293.344 550.855 297.784ZM541.303 297.784C541.303 300.892 542.731 302.152 544.723 302.152C546.727 302.152 548.143 300.892 548.143 297.784C548.143 294.664 546.727 293.344 544.723 293.344C542.731 293.344 541.303 294.664 541.303 297.784ZM554.938 291.508H557.446L559.15 299.908H559.342L561.274 293.26H563.002L564.742 299.908H564.946L566.65 291.508H569.074L566.314 304H564.034L562.078 296.704H561.922L559.81 304H557.698L554.938 291.508ZM573.156 297.736C573.156 293.452 575.724 291.22 579.552 291.22C583.104 291.22 585.18 293.08 585.18 296.824V297.964H575.868C575.94 300.736 577.224 302.152 579.456 302.152C580.884 302.152 581.988 301.576 582.552 300.28L585.132 300.676C584.268 303.148 582.084 304.288 579.444 304.288C575.724 304.288 573.156 302.044 573.156 297.736ZM576 296.284H582.576C582.576 294.256 581.28 293.344 579.468 293.344C577.644 293.344 576.384 294.292 576 296.284ZM596.247 291.508L596.427 293.32H596.775C597.987 291.952 599.187 291.22 601.299 291.22C601.755 291.22 602.139 291.256 602.511 291.34V293.848C599.883 293.848 598.383 294.004 596.619 295.084V301.84H600.783V304H590.823V301.84H593.955V293.668H590.823V291.508H596.247ZM619.938 287.344C619.002 287.128 618.162 286.996 617.19 286.996C615.126 286.996 614.106 287.596 614.106 290.272V291.508H619.518V293.668H614.106V301.84H618.27V304H608.31V301.84H611.442V293.668H607.59V291.508H611.442V290.692C611.442 286.276 613.446 284.668 617.094 284.668C618.114 284.668 619.05 284.8 619.938 285.052V287.344ZM625.773 291.508H628.437V299.824C628.437 301.648 629.361 302.128 630.513 302.128C631.845 302.128 632.937 301.492 633.837 300.508V291.508H636.501V304H634.209L634.017 302.176H633.669C632.613 303.328 631.329 304.276 629.289 304.276C627.081 304.276 625.773 303.172 625.773 300.532V291.508ZM642.816 304V301.84H647.088L647.1 287.776H642.828V285.64L649.428 285.352L649.764 285.676L649.752 301.84H654.024V304H642.816Z" fill="#04A5E5"/>
<path d="M671.452 298.396C670.132 298.396 669.064 297.52 669.064 296.08C669.064 294.628 670.132 293.776 671.452 293.776C672.76 293.776 673.816 294.628 673.816 296.08C673.816 297.52 672.76 298.396 671.452 298.396Z" fill="#BAC2DE"/>
<path d="M694.116 291.508L694.296 293.32H694.644C695.856 291.952 697.056 291.22 699.168 291.22C699.624 291.22 700.008 291.256 700.38 291.34V293.848C697.752 293.848 696.252 294.004 694.488 295.084V301.84H698.652V304H688.692V301.84H691.824V293.668H688.692V291.508H694.116ZM706.119 304V301.84H710.391V293.644H706.119V291.508L712.731 291.22L713.055 291.544V301.84H717.327V304H706.119ZM709.371 286.996C709.371 285.928 710.139 285.28 711.243 285.28C712.359 285.28 713.115 285.928 713.115 286.996C713.115 288.064 712.359 288.736 711.243 288.736C710.139 288.736 709.371 288.064 709.371 286.996ZM734.982 300.136C734.274 303.028 731.898 304.288 729.114 304.288C725.382 304.288 722.874 302.044 722.874 297.736C722.874 293.308 725.55 291.22 729.246 291.22C732.354 291.22 734.682 292.66 734.982 295.708L732.378 295.936C732.102 294.184 730.89 293.344 729.174 293.344C726.822 293.344 725.598 294.892 725.598 297.736C725.598 300.724 726.942 302.152 729.138 302.152C730.842 302.152 731.946 301.3 732.414 299.764L734.982 300.136ZM745.94 291.22C749.048 291.22 750.92 292.24 750.92 295.156V301.132C750.92 301.984 751.22 302.2 752.3 302.068V304C751.688 304.168 751.124 304.252 750.608 304.252C749.024 304.252 748.52 303.472 748.424 302.464H748.16C747.212 303.412 745.928 304.288 744.032 304.288C741.788 304.288 740.336 303.028 740.336 300.928C740.336 297.424 744.344 296.956 748.256 297.004V295.3C748.256 293.512 747.224 293.068 745.736 293.08C744.272 293.08 743.204 293.548 743.192 295L743.18 295.504H740.756V294.868C740.756 292.732 742.208 291.22 745.94 291.22ZM743.108 300.58C743.108 301.696 743.936 302.32 745.304 302.32C746.432 302.32 747.38 301.888 748.256 301.252V298.492C747.92 298.456 747.584 298.432 747.248 298.432C744.644 298.432 743.108 299.056 743.108 300.58ZM769.703 297.724C769.703 301.684 767.999 304.288 764.807 304.288C762.995 304.288 761.771 303.448 761.039 302.392H760.691L760.499 304H758.207V285.64H760.871V293.116H761.027C761.867 292.06 763.103 291.22 764.903 291.22C768.083 291.22 769.703 293.836 769.703 297.724ZM760.871 300.94C761.795 301.744 762.743 302.056 763.715 302.056C765.827 302.056 766.991 300.664 766.991 297.724C766.991 294.844 765.887 293.452 763.739 293.452C762.755 293.452 761.795 293.764 760.871 294.58V300.94ZM775.25 304V301.84H779.522L779.534 287.776H775.262V285.64L781.862 285.352L782.198 285.676L782.186 301.84H786.458V304H775.25ZM792.005 297.736C792.005 293.452 794.573 291.22 798.401 291.22C801.953 291.22 804.029 293.08 804.029 296.824V297.964H794.717C794.789 300.736 796.073 302.152 798.305 302.152C799.733 302.152 800.837 301.576 801.401 300.28L803.981 300.676C803.117 303.148 800.933 304.288 798.293 304.288C794.573 304.288 792.005 302.044 792.005 297.736ZM794.849 296.284H801.425C801.425 294.256 800.129 293.344 798.317 293.344C796.493 293.344 795.233 294.292 794.849 296.284Z" fill="#209FB5"/>
<path d="M821.452 298.396C820.132 298.396 819.064 297.52 819.064 296.08C819.064 294.628 820.132 293.776 821.452 293.776C822.76 293.776 823.816 294.628 823.816 296.08C823.816 297.52 822.76 298.396 821.452 298.396Z" fill="#BAC2DE"/>
<path d="M849.804 304H847.14V295.672C847.14 293.86 846.216 293.38 845.064 293.38C843.744 293.38 842.652 294.028 841.74 295V304H839.076V291.508H841.368L841.56 293.32H841.908C842.976 292.18 844.26 291.22 846.3 291.22C848.496 291.22 849.804 292.324 849.804 294.976V304ZM867.855 297.784C867.855 302.224 865.095 304.288 861.723 304.288C858.363 304.288 855.591 302.224 855.591 297.784C855.591 293.344 858.363 291.22 861.723 291.22C865.095 291.22 867.855 293.344 867.855 297.784ZM858.303 297.784C858.303 300.892 859.731 302.152 861.723 302.152C863.727 302.152 865.143 300.892 865.143 297.784C865.143 294.664 863.727 293.344 861.723 293.344C859.731 293.344 858.303 294.664 858.303 297.784ZM878.682 291.508L878.862 293.32H879.21C880.422 291.952 881.622 291.22 883.734 291.22C884.19 291.22 884.574 291.256 884.946 291.34V293.848C882.318 293.848 880.818 294.004 879.054 295.084V301.84H883.218V304H873.258V301.84H876.39V293.668H873.258V291.508H878.682ZM890.684 304V301.84H894.956V293.644H890.684V291.508L897.296 291.22L897.62 291.544V301.84H901.892V304H890.684ZM893.936 286.996C893.936 285.928 894.704 285.28 895.808 285.28C896.924 285.28 897.68 285.928 897.68 286.996C897.68 288.064 896.924 288.736 895.808 288.736C894.704 288.736 893.936 288.064 893.936 286.996ZM910.871 304H908.207V285.64H910.871V296.26H913.115L916.991 291.508H919.979L915.119 297.292V297.448L920.399 304H917.255L912.731 298.396H910.871V304ZM925.25 304V301.84H929.522V293.644H925.25V291.508L931.862 291.22L932.186 291.544V301.84H936.458V304H925.25ZM928.502 286.996C928.502 285.928 929.27 285.28 930.374 285.28C931.49 285.28 932.246 285.928 932.246 286.996C932.246 288.064 931.49 288.736 930.374 288.736C929.27 288.736 928.502 288.064 928.502 286.996ZM945.305 299.92V293.668H941.873V291.508H945.305V287.764H947.969V291.508H953.393V293.668H947.969V300.028C947.969 301.564 948.689 302.2 949.769 302.2C950.885 302.2 951.581 301.516 951.581 300.04V299.368H953.525V299.908C953.525 302.812 952.241 304.276 949.397 304.276C946.673 304.276 945.305 302.968 945.305 299.92Z" fill="#1E66F5"/>
</g>
</svg>
