<svg width="1280" height="360" viewBox="0 0 1280 360" fill="none" xmlns="http://www.w3.org/2000/svg">
<path d="M571.545 124.705V66.5227H585V70.9773H576.636V120.25H585V124.705H571.545Z" fill="#32C572"/>
<path d="M643.52 110.25V107.018L647.84 105.258V86.666C647.84 82.602 645.728 81.194 642.912 81.194C640.704 81.194 637.696 81.898 634.272 83.786V105.322L638.496 107.018V110.25H624V107.018L628.32 105.258V83.338L622.72 82.474V78.922L633.088 76.522L633.92 76.874V80.554C638.112 77.898 641.952 76.362 645.696 76.362C651.168 76.362 653.792 79.466 653.792 85.418V105.322L658.016 107.018V110.25H643.52Z" fill="#E6EBF9"/>
<path d="M707.636 66.5227V124.705H694.182V120.25H702.545V70.9773H694.182V66.5227H707.636Z" fill="#32C572"/>
<path d="M535.92 239V237.6L537.8 237.32C538.227 237.24 538.507 237.08 538.64 236.84C538.773 236.573 538.84 236.093 538.84 235.4V222.84C538.84 221.907 538.76 221.28 538.6 220.96C538.44 220.64 538.067 220.453 537.48 220.4L535.56 220.16L535.76 218.76L542.12 218.32L542.48 218.6L542.64 222.32H542.72C543.387 220.96 544.347 219.907 545.6 219.16C546.853 218.413 548.2 218.04 549.64 218.04C551.053 218.04 552.24 218.307 553.2 218.84C554.16 219.347 554.88 220.12 555.36 221.16C555.84 222.173 556.08 223.427 556.08 224.92V235.68C556.08 236.293 556.16 236.707 556.32 236.92C556.48 237.133 556.813 237.28 557.32 237.36L559.12 237.6V239H549.08V237.64L550.76 237.4C551.267 237.293 551.587 237.133 551.72 236.92C551.88 236.707 551.96 236.307 551.96 235.72V225.56C551.96 224.307 551.84 223.32 551.6 222.6C551.36 221.853 550.96 221.32 550.4 221C549.867 220.68 549.12 220.52 548.16 220.52C547.147 220.52 546.24 220.747 545.44 221.2C544.667 221.627 544.053 222.253 543.6 223.08C543.173 223.88 542.96 224.84 542.96 225.96V235.56C542.96 236.147 543.027 236.56 543.16 236.8C543.293 237.04 543.56 237.2 543.96 237.28L545.96 237.64V239H535.92ZM581.656 239.56C579.656 239.56 577.909 239.147 576.416 238.32C574.949 237.467 573.816 236.28 573.016 234.76C572.216 233.213 571.816 231.373 571.816 229.24C571.816 226.893 572.242 224.893 573.096 223.24C573.949 221.56 575.149 220.28 576.696 219.4C578.269 218.493 580.109 218.04 582.216 218.04C584.162 218.04 585.856 218.453 587.296 219.28C588.736 220.08 589.842 221.253 590.616 222.8C591.416 224.32 591.816 226.147 591.816 228.28C591.816 230.573 591.389 232.573 590.536 234.28C589.709 235.96 588.536 237.267 587.016 238.2C585.496 239.107 583.709 239.56 581.656 239.56ZM582.256 237.72C583.349 237.72 584.269 237.413 585.016 236.8C585.789 236.187 586.362 235.253 586.736 234C587.109 232.747 587.296 231.147 587.296 229.2C587.296 227.653 587.162 226.293 586.896 225.12C586.656 223.92 586.282 222.933 585.776 222.16C585.269 221.387 584.656 220.813 583.936 220.44C583.242 220.04 582.442 219.84 581.536 219.84C580.416 219.84 579.469 220.133 578.696 220.72C577.922 221.28 577.322 222.173 576.896 223.4C576.496 224.6 576.296 226.147 576.296 228.04C576.296 230.2 576.536 232 577.016 233.44C577.522 234.853 578.216 235.92 579.096 236.64C579.976 237.36 581.029 237.72 582.256 237.72ZM605.139 239V237.6L607.019 237.28C607.445 237.2 607.725 237.04 607.859 236.8C607.992 236.533 608.059 236.053 608.059 235.36V222.88C608.059 221.947 607.979 221.32 607.819 221C607.659 220.653 607.285 220.453 606.699 220.4L604.779 220.2L604.979 218.76L611.259 218.32L611.619 218.6L611.899 222.36H611.979C612.645 220.973 613.499 219.907 614.539 219.16C615.579 218.413 616.699 218.04 617.899 218.04C619.179 218.04 620.192 218.387 620.939 219.08C621.685 219.747 622.059 220.64 622.059 221.76C622.059 222.427 621.952 223 621.739 223.48C621.552 223.933 621.245 224.293 620.819 224.56C620.419 224.8 619.912 224.92 619.299 224.92C618.499 224.92 617.885 224.747 617.459 224.4C617.059 224.053 616.859 223.613 616.859 223.08C616.859 222.84 616.899 222.6 616.979 222.36C617.059 222.12 617.179 221.84 617.339 221.52C617.499 221.2 617.699 220.84 617.939 220.44C617.325 220.2 616.672 220.173 615.979 220.36C615.312 220.547 614.685 220.92 614.099 221.48C613.539 222.013 613.072 222.693 612.699 223.52C612.352 224.32 612.179 225.187 612.179 226.12V235.44C612.179 236.08 612.245 236.52 612.379 236.76C612.512 236.973 612.792 237.107 613.219 237.16L616.539 237.6V239H605.139ZM634.076 239V237.56L636.236 237.24C636.716 237.187 637.022 237.027 637.156 236.76C637.289 236.493 637.356 236 637.356 235.28V222.96C637.356 222 637.276 221.36 637.116 221.04C636.956 220.72 636.569 220.52 635.956 220.44L634.076 220.24L634.236 218.76L641.116 218.44L641.516 218.64V235.44C641.516 236 641.582 236.427 641.716 236.72C641.849 236.987 642.169 237.16 642.676 237.24L644.836 237.6V239H634.076ZM638.876 214.28C638.049 214.28 637.369 214.027 636.836 213.52C636.302 213.013 636.036 212.347 636.036 211.52C636.036 210.72 636.302 210.067 636.836 209.56C637.369 209.027 638.049 208.76 638.876 208.76C639.756 208.76 640.449 209.013 640.956 209.52C641.489 210.027 641.756 210.693 641.756 211.52C641.756 212.32 641.489 212.987 640.956 213.52C640.422 214.027 639.729 214.28 638.876 214.28ZM660.251 239.52L659.251 239.28V212.68C659.251 211.8 659.171 211.2 659.011 210.88C658.851 210.533 658.398 210.32 657.651 210.24L655.891 210.04L656.051 208.56L663.011 208.36L663.411 208.68V221.56L663.451 221.72C663.984 220.84 664.571 220.133 665.211 219.6C665.878 219.04 666.611 218.64 667.411 218.4C668.238 218.16 669.118 218.04 670.051 218.04C671.704 218.04 673.118 218.427 674.291 219.2C675.491 219.973 676.411 221.093 677.051 222.56C677.691 224.027 678.011 225.853 678.011 228.04C678.011 230.44 677.638 232.507 676.891 234.24C676.144 235.947 675.051 237.267 673.611 238.2C672.198 239.107 670.478 239.56 668.451 239.56C667.331 239.56 666.264 239.4 665.251 239.08C664.238 238.787 663.331 238.36 662.531 237.8L660.251 239.52ZM668.131 237.68C669.278 237.68 670.251 237.373 671.051 236.76C671.878 236.12 672.504 235.147 672.931 233.84C673.358 232.507 673.571 230.8 673.571 228.72C673.571 226.8 673.384 225.24 673.011 224.04C672.638 222.813 672.078 221.907 671.331 221.32C670.611 220.733 669.691 220.44 668.571 220.44C667.531 220.44 666.611 220.667 665.811 221.12C665.038 221.547 664.438 222.173 664.011 223C663.611 223.827 663.411 224.84 663.411 226.04V235.84C663.998 236.373 664.691 236.813 665.491 237.16C666.318 237.507 667.198 237.68 668.131 237.68ZM701.538 239.56C699.538 239.56 697.792 239.147 696.298 238.32C694.832 237.467 693.698 236.28 692.898 234.76C692.098 233.213 691.698 231.373 691.698 229.24C691.698 226.893 692.125 224.893 692.978 223.24C693.832 221.56 695.032 220.28 696.578 219.4C698.152 218.493 699.992 218.04 702.098 218.04C704.045 218.04 705.738 218.453 707.178 219.28C708.618 220.08 709.725 221.253 710.498 222.8C711.298 224.32 711.698 226.147 711.698 228.28C711.698 230.573 711.272 232.573 710.418 234.28C709.592 235.96 708.418 237.267 706.898 238.2C705.378 239.107 703.592 239.56 701.538 239.56ZM702.138 237.72C703.232 237.72 704.152 237.413 704.898 236.8C705.672 236.187 706.245 235.253 706.618 234C706.992 232.747 707.178 231.147 707.178 229.2C707.178 227.653 707.045 226.293 706.778 225.12C706.538 223.92 706.165 222.933 705.658 222.16C705.152 221.387 704.538 220.813 703.818 220.44C703.125 220.04 702.325 219.84 701.418 219.84C700.298 219.84 699.352 220.133 698.578 220.72C697.805 221.28 697.205 222.173 696.778 223.4C696.378 224.6 696.178 226.147 696.178 228.04C696.178 230.2 696.418 232 696.898 233.44C697.405 234.853 698.098 235.92 698.978 236.64C699.858 237.36 700.912 237.72 702.138 237.72ZM723.065 239V237.6L724.745 237.32C725.012 237.24 725.265 237.147 725.505 237.04C725.745 236.933 725.999 236.773 726.265 236.56C726.559 236.32 726.879 236 727.225 235.6L732.185 229.32L726.865 222.28C726.385 221.64 725.972 221.173 725.625 220.88C725.305 220.587 724.865 220.387 724.305 220.28L722.905 220L723.185 218.6H733.425V219.96L731.705 220.2C731.279 220.28 731.012 220.44 730.905 220.68C730.825 220.92 731.012 221.333 731.465 221.92L734.985 226.64L738.425 222.04C738.799 221.533 738.945 221.133 738.865 220.84C738.812 220.547 738.479 220.347 737.865 220.24L736.225 219.96L736.505 218.6H744.665V219.96L743.025 220.24C742.705 220.32 742.412 220.427 742.145 220.56C741.905 220.667 741.652 220.84 741.385 221.08C741.145 221.32 740.852 221.667 740.505 222.12L736.025 227.96L741.585 235.36C741.932 235.787 742.252 236.133 742.545 236.4C742.839 236.667 743.132 236.88 743.425 237.04C743.745 237.173 744.065 237.28 744.385 237.36L745.705 237.56V239H734.945V237.6L736.545 237.44C737.105 237.387 737.425 237.213 737.505 236.92C737.585 236.6 737.412 236.173 736.985 235.64L733.265 230.68L729.425 235.68C729.212 236 729.065 236.267 728.985 236.48C728.905 236.693 728.919 236.867 729.025 237C729.159 237.133 729.412 237.24 729.785 237.32L731.745 237.64V239H723.065Z" fill="#BAC2DE"/>
<g opacity="0.8">
<path d="M420.952 287.092C420.028 286.876 419.2 286.744 418.204 286.744C416.116 286.744 414.904 287.32 414.904 290.284V291.676H420.508V293.512H414.904V302.164H419.272V304H409.372V302.164H412.636V293.512H408.676V291.676H412.636V290.488C412.636 286.216 414.712 284.728 418.144 284.728C419.116 284.728 420.052 284.848 420.952 285.112V287.092ZM431.935 291.388C434.947 291.388 436.711 292.384 436.711 295.288V301.396C436.711 302.284 437.047 302.512 438.175 302.344V304C437.611 304.168 437.095 304.24 436.639 304.24C435.151 304.24 434.659 303.448 434.575 302.464H434.359C433.363 303.364 432.103 304.288 430.111 304.288C427.831 304.288 426.379 303.064 426.379 300.964C426.379 297.52 430.255 297.076 434.443 297.1V295.42C434.443 293.44 433.327 292.996 431.695 293.008C430.135 293.02 428.947 293.464 428.923 295.108V295.636H426.799V294.988C426.799 292.876 428.251 291.388 431.935 291.388ZM428.755 300.688C428.755 301.912 429.643 302.572 431.131 302.572C432.427 302.572 433.435 302.068 434.443 301.336V298.432C434.059 298.396 433.663 298.372 433.303 298.372C430.471 298.372 428.755 298.996 428.755 300.688ZM449.554 291.388C452.806 291.388 454.678 292.564 454.774 295.06L452.71 295.204C452.554 293.8 451.474 293.08 449.398 293.08C447.526 293.08 446.35 293.632 446.35 294.796C446.35 295.852 447.346 296.284 450.094 296.848C453.382 297.52 454.918 298.276 454.918 300.424C454.918 302.74 453.082 304.276 449.458 304.276C446.05 304.276 444.106 303.304 443.554 300.424L445.642 300.16C446.218 302.32 447.79 302.524 449.566 302.524C451.774 302.524 452.65 301.648 452.65 300.676C452.65 299.596 451.618 299.212 448.69 298.612C445.726 298 444.178 297.112 444.178 295C444.178 292.804 445.846 291.388 449.554 291.388ZM464.1 299.884V293.512H460.524V291.676H464.1V287.812H466.38V291.676H472.044V293.512H466.38V300.028C466.38 301.732 467.124 302.488 468.384 302.488C469.704 302.488 470.412 301.66 470.412 300.028V299.428H472.128V299.872C472.128 302.752 470.964 304.276 468.108 304.276C465.444 304.276 464.1 302.968 464.1 299.884Z" fill="#A6E3A1"/>
<path d="M489.952 298.396C488.632 298.396 487.564 297.52 487.564 296.08C487.564 294.628 488.632 293.776 489.952 293.776C491.26 293.776 492.316 294.628 492.316 296.08C492.316 297.52 491.26 298.396 489.952 298.396Z" fill="#BAC2DE"/>
<path d="M507.432 304V302.164H511.8L511.812 287.44H507.432V285.64L513.78 285.376L514.08 285.652V302.164H518.448V304H507.432ZM524.211 297.82C524.211 293.656 526.695 291.388 530.487 291.388C533.979 291.388 536.019 293.212 536.019 296.836V297.916H526.539C526.575 300.916 528.003 302.428 530.415 302.428C531.987 302.428 533.175 301.792 533.763 300.388L535.971 300.76C535.131 303.064 533.115 304.288 530.403 304.288C526.719 304.288 524.211 302.056 524.211 297.82ZM526.659 296.404H533.799C533.787 294.208 532.347 293.248 530.415 293.248C528.399 293.248 527.055 294.316 526.659 296.404ZM547.218 291.388C550.23 291.388 551.994 292.384 551.994 295.288V301.396C551.994 302.284 552.33 302.512 553.458 302.344V304C552.894 304.168 552.378 304.24 551.922 304.24C550.434 304.24 549.942 303.448 549.858 302.464H549.642C548.646 303.364 547.386 304.288 545.394 304.288C543.114 304.288 541.662 303.064 541.662 300.964C541.662 297.52 545.538 297.076 549.726 297.1V295.42C549.726 293.44 548.61 292.996 546.978 293.008C545.418 293.02 544.23 293.464 544.206 295.108V295.636H542.082V294.988C542.082 292.876 543.534 291.388 547.218 291.388ZM544.038 300.688C544.038 301.912 544.926 302.572 546.414 302.572C547.71 302.572 548.718 302.068 549.726 301.336V298.432C549.342 298.396 548.946 298.372 548.586 298.372C545.754 298.372 544.038 298.996 544.038 300.688ZM569.96 304H567.692V295.78C567.692 293.776 566.648 293.248 565.4 293.248C563.96 293.248 562.808 293.956 561.884 295.024V304H559.616V291.676H561.536L561.74 293.44H562.04C563.012 292.396 564.296 291.388 566.384 291.388C568.58 291.388 569.96 292.504 569.96 295.18V304Z" fill="#94E2D5"/>
<path d="M587.952 298.396C586.632 298.396 585.564 297.52 585.564 296.08C585.564 294.628 586.632 293.776 587.952 293.776C589.26 293.776 590.316 294.628 590.316 296.08C590.316 297.52 589.26 298.396 587.952 298.396Z" fill="#BAC2DE"/>
<path d="M610.424 291.676L610.616 293.428H610.928C612.2 292.108 613.424 291.388 615.584 291.388C616.028 291.388 616.4 291.424 616.772 291.496V293.62C614.036 293.62 612.584 293.8 610.772 295.048V302.164H615.14V304H605.228V302.164H608.504V293.512H605.228V291.676H610.424ZM622.715 304V302.164H627.083V293.476H622.715V291.676L629.063 291.4L629.363 291.688V302.164H633.731V304H622.715ZM626.099 287.02C626.099 286.06 626.783 285.484 627.779 285.484C628.763 285.484 629.447 286.06 629.447 287.02C629.447 287.98 628.763 288.568 627.779 288.568C626.783 288.568 626.099 287.98 626.099 287.02ZM651.386 300.244C650.702 302.968 648.458 304.288 645.65 304.288C642.014 304.288 639.494 302.08 639.494 297.808C639.494 293.512 642.062 291.388 645.77 291.388C648.782 291.388 651.074 292.792 651.386 295.756L649.142 295.948C648.854 294.052 647.51 293.248 645.71 293.248C643.166 293.248 641.834 294.856 641.834 297.808C641.834 300.928 643.322 302.428 645.662 302.428C647.45 302.428 648.686 301.564 649.19 299.896L651.386 300.244ZM662.5 291.388C665.512 291.388 667.276 292.384 667.276 295.288V301.396C667.276 302.284 667.612 302.512 668.74 302.344V304C668.176 304.168 667.66 304.24 667.204 304.24C665.716 304.24 665.224 303.448 665.14 302.464H664.924C663.928 303.364 662.668 304.288 660.676 304.288C658.396 304.288 656.944 303.064 656.944 300.964C656.944 297.52 660.82 297.076 665.008 297.1V295.42C665.008 293.44 663.892 292.996 662.26 293.008C660.7 293.02 659.512 293.464 659.488 295.108V295.636H657.364V294.988C657.364 292.876 658.816 291.388 662.5 291.388ZM659.32 300.688C659.32 301.912 660.208 302.572 661.696 302.572C662.992 302.572 664 302.068 665.008 301.336V298.432C664.624 298.396 664.228 298.372 663.868 298.372C661.036 298.372 659.32 298.996 659.32 300.688ZM686.083 297.82C686.083 301.828 684.259 304.288 681.151 304.288C679.339 304.288 678.115 303.46 677.323 302.368H676.999L676.819 304H674.899V285.64H677.167V293.308H677.311C678.199 292.216 679.459 291.388 681.247 291.388C684.367 291.388 686.083 293.896 686.083 297.82ZM677.167 300.964C678.175 301.996 679.207 302.368 680.287 302.368C682.483 302.368 683.743 300.88 683.743 297.82C683.743 294.832 682.555 293.32 680.323 293.32C679.219 293.32 678.199 293.692 677.167 294.724V300.964ZM691.846 304V302.164H696.214L696.226 287.44H691.846V285.64L698.194 285.376L698.494 285.652V302.164H702.862V304H691.846ZM708.625 297.82C708.625 293.656 711.109 291.388 714.901 291.388C718.393 291.388 720.433 293.212 720.433 296.836V297.916H710.953C710.989 300.916 712.417 302.428 714.829 302.428C716.401 302.428 717.589 301.792 718.177 300.388L720.385 300.76C719.545 303.064 717.529 304.288 714.817 304.288C711.133 304.288 708.625 302.056 708.625 297.82ZM711.073 296.404H718.213C718.201 294.208 716.761 293.248 714.829 293.248C712.813 293.248 711.469 294.316 711.073 296.404Z" fill="#89DCEB"/>
<path d="M737.952 298.396C736.632 298.396 735.564 297.52 735.564 296.08C735.564 294.628 736.632 293.776 737.952 293.776C739.26 293.776 740.316 294.628 740.316 296.08C740.316 297.52 739.26 298.396 737.952 298.396Z" fill="#BAC2DE"/>
<path d="M766.112 304H763.844V295.78C763.844 293.776 762.8 293.248 761.552 293.248C760.112 293.248 758.96 293.956 758.036 295.024V304H755.768V291.676H757.688L757.892 293.44H758.192C759.164 292.396 760.448 291.388 762.536 291.388C764.732 291.388 766.112 292.504 766.112 295.18V304ZM784.235 297.856C784.235 302.176 781.535 304.288 778.223 304.288C774.923 304.288 772.211 302.176 772.211 297.856C772.211 293.548 774.923 291.388 778.223 291.388C781.535 291.388 784.235 293.548 784.235 297.856ZM774.539 297.856C774.539 301 776.063 302.428 778.223 302.428C780.383 302.428 781.895 301 781.895 297.856C781.895 294.712 780.383 293.248 778.223 293.248C776.063 293.248 774.539 294.712 774.539 297.856ZM794.99 291.676L795.182 293.428H795.494C796.766 292.108 797.99 291.388 800.15 291.388C800.594 291.388 800.966 291.424 801.338 291.496V293.62C798.602 293.62 797.15 293.8 795.338 295.048V302.164H799.706V304H789.794V302.164H793.07V293.512H789.794V291.676H794.99ZM807.28 304V302.164H811.648V293.476H807.28V291.676L813.628 291.4L813.928 291.688V302.164H818.296V304H807.28ZM810.664 287.02C810.664 286.06 811.348 285.484 812.344 285.484C813.328 285.484 814.012 286.06 814.012 287.02C814.012 287.98 813.328 288.568 812.344 288.568C811.348 288.568 810.664 287.98 810.664 287.02ZM827.167 304H824.899V285.64H827.167V296.452H829.579L833.743 291.676H836.335L831.379 297.292V297.448L836.839 304H834.091L829.339 298.288H827.167V304ZM841.846 304V302.164H846.214V293.476H841.846V291.676L848.194 291.4L848.494 291.688V302.164H852.862V304H841.846ZM845.23 287.02C845.23 286.06 845.914 285.484 846.91 285.484C847.894 285.484 848.578 286.06 848.578 287.02C848.578 287.98 847.894 288.568 846.91 288.568C845.914 288.568 845.23 287.98 845.23 287.02ZM861.949 299.884V293.512H858.373V291.676H861.949V287.812H864.229V291.676H869.893V293.512H864.229V300.028C864.229 301.732 864.973 302.488 866.233 302.488C867.553 302.488 868.261 301.66 868.261 300.028V299.428H869.977V299.872C869.977 302.752 868.813 304.276 865.957 304.276C863.293 304.276 861.949 302.968 861.949 299.884Z" fill="#74C7EC"/>
</g>
</svg>
